<mxfile host="65bd71144e">
    <diagram name="Prime Array Flowchart" id="primeArray1">
        <mxGraphModel dx="762" dy="563" grid="1" gridSize="10" guides="1" tooltips="1" connect="1" arrows="1" fold="1" page="1" pageScale="1" pageWidth="827" pageHeight="1169" math="0" shadow="0">
            <root>
                <mxCell id="0"/>
                <mxCell id="1" parent="0"/>
                <mxCell id="start" value="Start" style="ellipse;whiteSpace=wrap;html=1;" parent="1" vertex="1">
                    <mxGeometry x="260" y="20" width="120" height="60" as="geometry"/>
                </mxCell>
                <mxCell id="input_n" value="รับค่า N" style="shape=parallelogram;whiteSpace=wrap;html=1;" parent="1" vertex="1">
                    <mxGeometry x="240" y="120" width="160" height="60" as="geometry"/>
                </mxCell>
                <mxCell id="create_array" value="สร้าง Array ขนาด N" style="rounded=0;whiteSpace=wrap;html=1;" parent="1" vertex="1">
                    <mxGeometry x="220" y="220" width="200" height="60" as="geometry"/>
                </mxCell>
                <mxCell id="2" style="edgeStyle=none;html=1;exitX=1;exitY=0.5;exitDx=0;exitDy=0;entryX=0.5;entryY=0;entryDx=0;entryDy=0;" edge="1" parent="1" source="loop_input" target="func_isPrime">
                    <mxGeometry relative="1" as="geometry"/>
                </mxCell>
                <mxCell id="loop_input" value="วนลูป i = 0 ถึง N-1\nรับค่า arr[i]" style="rounded=0;whiteSpace=wrap;html=1;" parent="1" vertex="1">
                    <mxGeometry x="200" y="320" width="240" height="80" as="geometry"/>
                </mxCell>
                <mxCell id="3" style="edgeStyle=none;html=1;exitX=1;exitY=0.5;exitDx=0;exitDy=0;entryX=0.5;entryY=1;entryDx=0;entryDy=0;" edge="1" parent="1" source="display_index" target="func_isPrime">
                    <mxGeometry relative="1" as="geometry"/>
                </mxCell>
                <mxCell id="display_index" value="แสดง Index ของ Array" style="rounded=0;whiteSpace=wrap;html=1;" parent="1" vertex="1">
                    <mxGeometry x="220" y="440" width="200" height="60" as="geometry"/>
                </mxCell>
                <mxCell id="loop_display" value="วนลูป i = 0 ถึง N-1\nตรวจสอบ arr[i] ด้วย isPrime\nถ้าใช่ → แสดง arr[i]\nถ้าไม่ → แสดง &#39;#&#39;" style="rounded=0;whiteSpace=wrap;html=1;" parent="1" vertex="1">
                    <mxGeometry x="200" y="540" width="240" height="100" as="geometry"/>
                </mxCell>
                <mxCell id="stop" value="Stop" style="ellipse;whiteSpace=wrap;html=1;" parent="1" vertex="1">
                    <mxGeometry x="260" y="680" width="120" height="60" as="geometry"/>
                </mxCell>
                <mxCell id="func_isPrime" value="Function isPrime(num)\nถ้า num &lt; 2 → return False\nวน i = 2 ถึง √num\n  ถ้า num % i == 0 → return False\nreturn True" style="rounded=0;whiteSpace=wrap;html=1;strokeWidth=2;" parent="1" vertex="1">
                    <mxGeometry x="610" y="330" width="300" height="160" as="geometry"/>
                </mxCell>
                <mxCell id="e1" parent="1" source="start" target="input_n" edge="1">
                    <mxGeometry relative="1" as="geometry"/>
                </mxCell>
                <mxCell id="e2" parent="1" source="input_n" target="create_array" edge="1">
                    <mxGeometry relative="1" as="geometry"/>
                </mxCell>
                <mxCell id="e3" parent="1" source="create_array" target="loop_input" edge="1">
                    <mxGeometry relative="1" as="geometry"/>
                </mxCell>
                <mxCell id="e4" parent="1" source="loop_input" target="display_index" edge="1">
                    <mxGeometry relative="1" as="geometry"/>
                </mxCell>
                <mxCell id="e5" parent="1" source="display_index" target="loop_display" edge="1">
                    <mxGeometry relative="1" as="geometry"/>
                </mxCell>
                <mxCell id="e6" parent="1" source="loop_display" target="stop" edge="1">
                    <mxGeometry relative="1" as="geometry"/>
                </mxCell>
            </root>
        </mxGraphModel>
    </diagram>
</mxfile>